#!OML:ASF F:\VICON\USERDATA\INSTALL\rory3\rory3.ASF
:FULLY-SPECIFIED
:DEGREES
69
root 0.35784832616804496 17.61845685579129 37.10211534460719 0.6445016800023433 -5.121490861552617 -7.378769445964027
lfemur -24.9160703797192 -4.95049370228584 -10.498913105826176
ltibia 11.04615853517896
lfoot -7.005728078799433 7.281591309012459
ltoes -3.226485449983443
rfemur 7.5047929451119035 7.4254758738162945 34.19023986070877
rtibia 26.03362031026184
rfoot -13.702657433795876 0.36365678762302167
rtoes -1.8944659225740401
lowerback 8.61610110930824 3.0533627121966838 7.961001958673731
upperback 0.07004610218119106 4.991213351993622 1.974841709476914
thorax -4.732370960990034 2.282193912580552 -2.674461590260264
lowerneck -16.636495160994887 -2.90579734585107 -2.732036617554107
upperneck 22.00565942197057 -3.652874173044868 1.2992283346700673
head 9.638371665198878 -1.7585254101845746 0.6402793882618002
lclavicle -2.7977820195948764e-15 -4.1641100682297182e-16
lhumerus -36.843418100300184 4.724837030550144 82.85041982845803
lradius 20.50043429148941
lwrist 2.7720942929663304
lhand -26.984693757679803 22.967457330729907
lfingers 7.1250199999999975
lthumb -0.33044998046915114 53.01896897982652
rclavicle -2.8010802672182655e-15 -4.1859726273115857e-16
rhumerus -24.151371967175404 -12.748735808298042 -81.96293491262666
rradius 27.691389201890168
rwrist 2.2621868355139956
rhand -18.019860546959013 23.265241801973662
rfingers 7.1250199999999975
rthumb 8.006396505318985 -5.817525004854419
70
root 0.43766924209527736 17.544211365731034 37.52587657035909 -0.3514233240059623 -5.102342282332849 -6.897059361338492
lfemur -24.432322744792547 -3.771322181972227 -12.154717632198892
ltibia 15.309915840101766
lfoot -6.189167112927746 4.043805741147581
ltoes -3.3238485346536604
rfemur 8.473313858113817 6.827939194451007 33.27144785799582
rtibia 30.60254110687953
rfoot -9.203215766183424 2.331641593360029
rtoes -2.35902048785472
lowerback 8.80266765998928 3.0056937971157067 7.427645466839434
upperback 0.1907035519988409 4.908115194270486 1.7173506954150302
thorax -4.788884447912432 2.2767202849948682 -2.549138294821981
lowerneck -16.673897946427836 -2.915964581619335 -2.6177625058017338
upperneck 22.005999947598582 -3.6858683282336857 1.2479203850560399
head 9.651045216928267 -1.773769472027974 0.615918760392588
lclavicle -2.7982344092492073e-15 -4.167110631829865e-16
lhumerus -37.03548578802973 5.582989371863929 82.36542647255654
lradius 19.200247129815992
lwrist 0.9237995750939341
lhand -26.426251887797974 23.503976928464144
lfingers 7.1250199999999975
lthumb 0.25636233469416925 53.523188165246744
rclavicle -2.8001486628889276e-15 -4.1797582904867088e-16
rhumerus -24.545089261985623 -13.854413810195851 -81.72461471717826
rradius 27.116470616307197
rwrist 3.1292037415337797
rhand -18.176535374331227 23.568055285293685
rfingers 7.1250199999999975
rthumb 7.8940495404044695 -5.828511166136268
71
root 0.5469133227962175 17.623187411376733 38.494501137231495 -1.2295859492554155 -4.953769287517149 -4.693469568639985
lfemur -22.577892612376274 -3.2185113440663824 -15.430962356701645
ltibia 20.376890976266473
lfoot -2.9192616701206906 0.08048558210800916
ltoes -2.4253471246085465
rfemur 7.775896562464647 5.743621030186626 30.312093363834585
rtibia 35.79129022982329
rfoot -0.6846088752226009 4.364860562768385
rtoes 0.4321837268833071
lowerback 8.75084173343811 3.082552202248452 5.621570212081261
upperback 0.23002090890345844 4.784610059634797 1.2176789487103252
thorax -4.7381698139179 2.2925231956625316 -2.0597616025104233
lowerneck -16.647278665861034 -2.9237688323767554 -2.516392162586391
upperneck 22.05963597661619 -3.6961384305088623 1.1657096254918535
head 9.673118447770614 -1.7800777217889483 0.5915091417026521
lclavicle -2.7990483409268535e-15 -4.1725335072345996e-16
lhumerus -37.18587455380001 6.688994307784252 81.72071926438839
lradius 17.956109886148464
lwrist -0.6728560183409149
lhand -25.470844511700683 24.61026827414467
lfingers 7.1250199999999975
lthumb 1.0166775049168577 54.414254495479824
rclavicle -2.8003173153284365e-15 -4.1808836472649463e-16
rhumerus -25.346712968287775 -15.485167660267823 -81.27339231572225
rradius 26.314348009982318
rwrist 4.230589026466182
rhand -18.22859532193527 23.648031955632934
rfingers 7.1250199999999975
rthumb 7.913348396954241 -6.0231197466695745
72
root 0.643998366815942 17.70818174023733 39.778462761485166 -2.2391977105271508 -4.437594053385247 -2.7318493850612398
lfemur -20.08518674727586 -3.4958587422521017 -18.300272480945956
ltibia 22.947229337247116
lfoot -1.4014024291177982 -2.991169117371107
ltoes -2.302264595032818
rfemur 3.844975723497571 3.8998917967783546 26.819291906618748
rtibia 43.10594516579334
rfoot 8.86257056219384 3.8236257042040602
rtoes 7.6635867650394776
lowerback 8.959849157205072 2.915068169587825 4.051450726578693
upperback 0.2640326674781525 4.435340547060885 0.7412177578896418
thorax -4.8543375256147625 2.144753759384187 -1.5727329591068333
lowerneck -16.473959098840105 -2.905290537894711 -2.471027498979598
upperneck 22.07725728535424 -3.679880093568345 1.1496881658641107
head 9.64643210112861 -1.7711124183933606 0.6012244438610413
lclavicle -2.7982696230625896e-15 -4.167351620786044e-16
lhumerus -37.24557798233632 7.470631399661097 81.1873945897984
lradius 17.28992781504047
lwrist -1.3463946733330907
lhand -24.57700149978739 25.08734315924844
lfingers 7.1250199999999975
lthumb 1.987711785121459 54.98059377962333
rclavicle -2.8001338919093724e-15 -4.1796603258026703e-16
rhumerus -26.35980599333687 -17.185389481333996 -80.6685222688174
rradius 25.344395579769156
rwrist 5.6148694536041095
rhand -18.04019237193543 23.432508103848388
rfingers 7.1250199999999975
rthumb 8.128916066810639 -6.431052653167268
73
root 0.7445249803728317 17.778098888088635 41.15476713121689 -2.8743895808181055 -5.181938021995538 -1.4829681432087698
lfemur -16.978610473791797 -3.3097853488537083 -20.270185809097526
ltibia 24.81212987807143
lfoot -2.283669089502451 -3.278318954696858
ltoes -2.3654220966566126
rfemur -2.478056163187082 3.0955737219605695 24.153046892136917
rtibia 51.25861963698006
rfoot 13.239717429898581 0.39668458317898736
rtoes 14.964552494838578
lowerback 9.336714492729891 2.9894515882086283 2.8002144904669795
upperback 0.3941126004189623 4.375090690743206 0.4709785836017635
thorax -4.8918256392449555 2.1677918234281064 -1.1692002083483937
lowerneck -16.430169467123882 -2.868893680558342 -2.494334596656084
upperneck 22.07040247331096 -3.6373349529463095 1.2179005261742852
head 9.630025647941194 -1.7482954197298288 0.6355813821975523
lclavicle -2.7989163033966094e-15 -4.1716417227251746e-16
lhumerus -36.932655342684455 6.979510448739253 81.26614961039198
lradius 17.942993877943394
lwrist 0.6234384920104765
lhand -24.697075274044472 24.590063785059662
lfingers 7.1250199999999975
lthumb 1.997678340298259 54.51257347952678
rclavicle -2.7995734150702935e-15 -4.175922141245381e-16
rhumerus -27.079436867372472 -18.082207579958876 -80.23117281246417
rradius 24.375104132679343
rwrist 6.6101301927066896
rhand -17.61619153103209 23.190571381356357
rfingers 7.1250199999999975
rthumb 8.500846784754165 -6.7442528327597415
74
root 0.8070383321223312 17.836708204139573 42.523934340072366 -3.1481760634514258 -5.5914858553995295 0.023312186347259622
lfemur -13.58689884079697 -3.636571030546493 -22.226514100010053
ltibia 24.846044986084042
lfoot -3.030112608772794 -2.459579419724392
ltoes -1.2516482747376316
rfemur -8.869044063131533 2.130093503338058 21.876938602909643
rtibia 58.33901007493368
rfoot 8.565239730686725 -5.614666847986295
rtoes 14.762246146689389
lowerback 9.675959676821469 2.786113826406248 1.2747896140030568
upperback 0.57575179891347 3.8767136668137216 0.23863239978212158
thorax -4.9212738708914685 1.973893303287714 -0.5211107634005351
lowerneck -16.458393101957085 -2.7837001814623688 -2.5148434398385495
upperneck 22.07702126310876 -3.517118797828016 1.1721505543692048
head 9.619906194173497 -1.69681773836738 0.6317941173188646
lclavicle -2.7964357704272255e-15 -4.1550994831880777e-16
lhumerus -35.6376702729575 5.272333115194101 82.01397301071279
lradius 18.979970594547634
lwrist 3.5394728684499683
lhand -25.712356028971033 24.005185883976385
lfingers 7.1250199999999975
lthumb 0.9745129392790682 54.143655098362615
rclavicle -2.799426682895946e-15 -4.174943232058674e-16
rhumerus -27.428967795792733 -18.4262090259957 -80.04319757692109
rradius 23.333590049398047
rwrist 7.498863548024266
rhand -17.252867229970228 22.89933804273511
rfingers 7.1250199999999975
rthumb 8.812237015196239 -7.009633688977465
75
root 0.8356741988910128 17.85090194369261 43.333736320416094 -3.5366065804859144 -5.058432152934724 0.8093289162657702
lfemur -10.371311540442706 -4.055774268330385 -23.617745021173643
ltibia 25.126372461296143
lfoot -3.599274181384344 -1.3346177151520096
ltoes 0.20828016633349167
rfemur -14.587811543304129 0.7537511897304534 20.959739063746177
rtibia 62.640625663800805
rfoot 2.1338035229307497 -10.020553178867583
rtoes 12.877921959699917
lowerback 10.04870150255935 2.151149515794066 0.38920564983089745
upperback 0.8422725109913759 2.950813323771407 0.25309266336962644
thorax -4.93984445844591 1.5059725380606066 0.07664170004108561
lowerneck -16.381756967712917 -2.7279945330656843 -2.6857285701469262
upperneck 22.043056770193992 -3.427003072526729 1.1867641280717873
head 9.595220198238595 -1.6647742842387208 0.6552602772853506
lclavicle -2.7961810822030205e-15 -4.153400954162765e-16
lhumerus -34.051325608269615 3.838870469142077 82.42396547321155
lradius 19.61634951407418
lwrist 3.4716770247533537
lhand -26.251842280846635 23.83942945800894
lfingers 7.1250199999999975
lthumb 0.29652361060197785 53.96920029153343
rclavicle -2.7984242688714756e-15 -4.168256951195193e-16
rhumerus -27.825719805380743 -19.044420556001356 -79.82796514965138
rradius 22.50976499794355
rwrist 8.679578982735347
rhand -16.955880429258926 22.556895238462605
rfingers 7.1250199999999975
rthumb 9.003030559788247 -7.233846111185706
